<svg id="Слой_1" data-name="Слой 1" xmlns="http://www.w3.org/2000/svg" viewBox="0 0 879.78 552.42"><defs><style>.cls-1{fill:#2e4593;}.cls-2{fill:#fcf5ff;}.cls-3{fill:#f42525;}.cls-4{fill:#fff;}.cls-5{fill:#cd002a;}</style></defs><title>анг</title><polygon class="cls-1" points="879.29 1.29 879.29 551.97 879.21 552.11 0.7 552.11 0.7 1.29 879.29 1.29"/><polygon class="cls-2" points="879.29 494.67 879.29 551.97 879.21 552.11 787.82 552.11 518.15 383.01 491.08 366.13 459.26 346.08 448.61 339.34 416.2 319.1 404.13 311.52 393.98 305.18 373.57 292.47 367.02 288.29 357.06 282.13 261.3 221.95 218.27 194.95 0.7 58.64 0.7 1.29 1.49 0.17 3.19 1.29 92.17 1.29 367.02 173.5 393.98 190.49 401.21 194.95 444.28 221.95 448.61 224.69 465.15 235.03 491.08 251.38 495.52 254.2 518.15 268.31 540.15 282.13 599.29 319.1 642.34 346.08 879.29 494.67"/><polygon class="cls-3" points="879.4 550.42 879.61 552.42 820.8 552.11 518.15 362.36 492.31 346.08 491.08 345.39 465.15 329.07 449.34 319.1 420.61 301.1 393.98 284.5 390.18 282.13 373.57 271.63 367.02 267.49 294.35 221.95 251.39 194.95 0.7 37.77 0.7 0 1.49 0.17 3.19 1.29 312.25 194.95 355.23 221.95 367.02 229.32 393.98 246.33 404.13 252.63 420.61 263.01 451.12 282.13 491.08 307.17 495.52 309.99 510.21 319.1 518.15 324.16 553.2 346.08 879.4 550.42"/><polygon class="cls-2" points="879.29 12.13 879.29 69.47 678.94 194.95 635.96 221.95 540.15 282.13 518.15 295.79 495.52 309.99 491.08 312.78 480.97 319.1 465.15 329.07 448.61 339.34 437.89 346.08 393.98 373.69 367.02 390.62 109.31 552.11 0.7 552.11 0.7 505.46 254.9 346.08 297.86 319.1 357.06 282.13 367.02 275.83 373.57 271.63 393.98 258.88 404.13 252.63 448.61 224.69 452.94 221.95 491.08 198.01 495.97 194.95 518.15 181.07 805.05 1.29 872.41 1.29 879.29 12.13"/><polygon class="cls-3" points="877.07 14.97 589.91 194.95 546.85 221.95 518.15 240.01 495.52 254.2 491.08 256.95 451.12 282.13 420.61 301.1 404.13 311.52 393.98 317.79 391.96 319.1 367.02 334.82 348.84 346.08 20.52 552.11 0.7 552.11 0.7 526.33 287.94 346.08 331 319.1 367.02 296.57 373.57 292.47 390.18 282.13 393.98 279.63 420.61 263.01 465.15 235.03 485.94 221.95 491.08 218.73 518.15 201.76 529.02 194.95 837.99 1.29 868.52 1.29 879.29 1.29 879.4 13.32 877.07 14.97"/><rect class="cls-4" y="194.95" width="879.78" height="151.13"/><rect class="cls-3" y="221.95" width="879.78" height="97.15"/><rect class="cls-5" x="393.98" y="1.29" width="97.11" height="550.82"/><polygon class="cls-4" points="490.89 346.08 517.94 346.08 517.94 552.11 366.76 552.11 366.76 346.08 393.73 346.08 393.73 194.95 366.76 194.95 366.76 1.29 517.94 1.29 517.94 194.95 490.89 194.95 490.89 346.08"/><rect class="cls-3" x="393.26" y="1.29" width="98.19" height="550.82"/></svg>